<svg xmlns="http://www.w3.org/2000/svg" width="1000" height="343"><svg xmlns="http://www.w3.org/2000/svg" xmlns:xlink="http://www.w3.org/1999/xlink" width="1000" height="343" data-background-color="#ffffff" transform="translate(-.606 .53)" viewBox="0 0 396 136"><svg width="395.52" height="136.42" transform="translate(.24 -.21)" viewBox="0 0 395.52 136.42"><svg width="395.52" height="136.42" viewBox="0 0 663.436 228.828"><svg width="395.52" height="165.577" transform="translate(0 31.625)" viewBox="0 0 395.52 165.577"><svg width="395.52" height="165.577" viewBox="0 0 395.52 165.577"><svg width="395.52" height="165.577" viewBox="0 0 395.52 165.577"><svg width="395.52" height="165.577" data-palette-color="#ffcf31" viewBox="1.8 -35.7 86.95 36.4"><path fill="#ffcf31" d="M21.3-23.1v-1.2q0-2.1-1.62-3.65-1.63-1.55-4.58-1.55-2.5 0-3.95 1.02Q9.7-27.45 9.7-25.7q0 .9.35 1.62.35.73 1.23 1.3.87.58 2.3 1.03 1.42.45 3.62.85 5.5 1 8.4 3.35 2.9 2.35 2.9 6.95v.6q0 2.45-.87 4.42-.88 1.98-2.53 3.38t-4 2.15Q18.75.7 15.8.7q-3.45 0-6.07-.98-2.63-.97-4.38-2.7Q3.6-4.7 2.7-7.03q-.9-2.32-.9-5.07v-1.5h6.6v1.2q0 3.15 1.83 5.02Q12.05-5.5 15.9-5.5q3 0 4.45-1.3 1.45-1.3 1.45-3.1 0-.85-.3-1.63-.3-.77-1.05-1.4-.75-.62-2.05-1.12-1.3-.5-3.3-.85-2.65-.45-4.85-1.17-2.2-.73-3.82-1.93-1.63-1.2-2.53-3-.9-1.8-.9-4.4v-.3q0-2.15.88-3.98.87-1.82 2.45-3.17 1.57-1.35 3.8-2.1 2.22-.75 4.97-.75 3.1 0 5.5.87 2.4.88 4.03 2.38 1.62 1.5 2.45 3.45.82 1.95.82 4.1v1.8h-6.6Zm22.3 11.7v-6.3h15V0h-6v-3.9h-.9q-.6 1.95-2.3 3.27Q47.7.7 44.3.7q-2.4 0-4.5-.9t-3.65-2.68q-1.55-1.77-2.45-4.4-.9-2.62-.9-6.12v-8.2q0-3.4.97-6.03.98-2.62 2.7-4.42 1.73-1.8 4.13-2.72 2.4-.93 5.3-.93 3 0 5.35.97 2.35.98 4 2.71 1.65 1.72 2.5 4.04.85 2.33.85 4.98v.6H52v-.6q0-3.15-1.63-4.78-1.62-1.62-4.57-1.62-2.8 0-4.6 1.87-1.8 1.88-1.8 6.43v7.4q0 8.1 6.6 8.1 2.95 0 4.47-1.58Q52-8.75 52-11.4h-8.4ZM77.15-35l4.1 31.7h.9V-35h6.6V0h-12.9l-4.1-31.7h-.9V0h-6.6v-35h12.9Z" class="undefined-text-0" data-fill-palette-color="primary"/></svg></svg></svg></svg><svg width="228.828" height="228.828" transform="translate(434.609)" viewBox="0 0 228.828 228.828"><g fill="#ffcf31" stroke="transparent" data-palette-color="#ffcf31"><path d="M0 0h62.546v228.828H0z" data-fill-palette-color="accent"/><path fill-opacity=".75" d="M76.276 0h62.546v228.828H76.276z" data-fill-palette-color="accent"/><path fill-opacity=".5" d="M152.552 0h62.546v228.828h-62.546z" data-fill-palette-color="accent"/></g></svg></svg></svg></svg></svg>